<?xml version="1.0" standalone="no"?>
<!DOCTYPE svg PUBLIC "-//W3C//DTD SVG 20010904//EN"
 "http://www.w3.org/TR/2001/REC-SVG-20010904/DTD/svg10.dtd">
<svg version="1.0" xmlns="http://www.w3.org/2000/svg"
 width="2236.000000pt" height="2236.000000pt" viewBox="0 0 2236.000000 2236.000000"
 preserveAspectRatio="xMidYMid meet">
<metadata>
Created by potrace 1.16, written by Peter Selinger 2001-2019
</metadata>
<g transform="translate(0.000000,2236.000000) scale(0.100000,-0.100000)"
fill="#000000" stroke="none">
<path d="M14795 18445 c-250 -88 -553 -194 -675 -235 -63 -21 -180 -62 -260
-90 -80 -29 -176 -62 -215 -75 -38 -13 -155 -54 -260 -90 -104 -37 -215 -75
-245 -85 -30 -10 -95 -33 -145 -50 -49 -18 -153 -54 -230 -80 -77 -27 -219
-76 -315 -110 -96 -34 -251 -87 -345 -120 -93 -32 -262 -90 -375 -130 -113
-39 -236 -82 -275 -95 -207 -70 -338 -116 -367 -128 -18 -8 -87 -68 -153 -132
-66 -65 -349 -344 -630 -619 -280 -276 -658 -648 -840 -828 -181 -179 -373
-368 -425 -418 -52 -51 -223 -219 -380 -373 -157 -155 -395 -389 -530 -521
-135 -132 -427 -421 -650 -641 -223 -220 -529 -522 -680 -670 -151 -149 -549
-540 -885 -870 -1080 -1063 -1215 -1196 -1490 -1465 -766 -753 -768 -755 -743
-758 41 -5 281 -42 338 -51 30 -6 91 -15 135 -21 44 -7 132 -20 195 -30 63
-10 151 -24 195 -30 44 -7 134 -20 200 -31 66 -11 149 -23 185 -29 77 -11 310
-47 395 -60 118 -19 401 -62 460 -70 61 -8 341 -52 451 -70 34 -5 82 -10 108
-10 l46 0 1 -1572 c1 -865 2 -1584 3 -1597 1 -28 -4 -30 -199 -80 -159 -41
-310 -83 -540 -148 -104 -30 -212 -61 -240 -68 -53 -14 -460 -137 -510 -154
-16 -5 -97 -31 -180 -57 -164 -51 -725 -237 -845 -279 -41 -15 -112 -40 -157
-56 -499 -175 -944 -343 -1458 -549 -181 -72 -348 -140 -372 -151 -23 -10 -44
-19 -46 -19 -5 0 -480 -200 -484 -204 -1 -1 60 -60 135 -131 75 -71 229 -217
342 -324 113 -108 243 -232 290 -276 119 -113 254 -240 405 -385 72 -69 175
-168 230 -220 56 -52 193 -183 305 -290 113 -107 248 -235 300 -284 52 -50
151 -144 220 -210 107 -103 415 -395 531 -503 l36 -34 194 76 c318 125 626
244 794 307 44 16 89 34 100 39 17 7 164 62 400 149 28 10 82 30 120 45 39 15
90 33 115 41 25 8 54 19 65 24 11 6 63 25 115 44 52 18 154 55 225 81 123 44
184 66 380 135 47 17 123 44 170 60 47 17 122 43 168 59 45 16 116 41 157 56
41 14 98 33 125 42 28 9 86 28 130 44 106 37 748 250 995 329 107 34 215 69
240 77 113 37 783 243 855 263 17 5 62 18 100 30 39 12 94 28 124 36 29 8 57
16 60 19 4 2 40 13 81 24 41 11 107 29 145 41 39 12 102 30 140 41 39 10 102
28 140 38 39 11 104 30 145 41 41 12 116 33 165 46 50 14 131 36 180 49 289
78 690 183 785 204 30 7 87 22 125 32 72 20 488 120 655 158 52 12 133 31 180
42 47 10 126 28 175 40 128 29 153 35 310 68 287 62 672 140 785 161 36 6 94
18 130 25 36 8 117 23 180 34 63 11 176 31 250 45 74 13 149 26 165 29 17 2
156 25 310 51 154 25 307 51 340 56 125 20 261 40 300 45 40 6 104 14 245 34
83 12 514 66 600 76 30 3 109 12 175 19 66 8 170 19 230 25 61 6 178 18 260
26 253 24 861 69 1100 80 66 3 215 10 330 16 332 16 1504 13 1880 -5 514 -25
975 -63 1408 -117 49 -6 90 -9 93 -7 8 9 -412 121 -723 193 -35 8 -91 22 -125
30 -35 8 -99 21 -143 30 -44 9 -105 22 -135 30 -30 7 -82 19 -115 25 -33 7
-85 19 -115 26 -30 7 -91 20 -135 29 -44 9 -132 28 -195 42 -63 14 -133 29
-155 33 -22 4 -83 18 -135 29 -52 12 -115 26 -140 31 -48 10 -160 34 -225 50
-54 13 -254 57 -390 85 -60 13 -141 31 -180 40 -38 8 -90 20 -115 24 -57 11
-337 73 -505 111 -115 27 -285 64 -320 70 -22 4 -92 19 -155 33 -63 14 -209
46 -325 71 -115 25 -237 52 -270 60 -33 8 -87 20 -120 26 -33 7 -85 19 -116
26 -30 8 -98 22 -150 33 -88 17 -154 32 -446 97 -65 15 -128 29 -141 32 -40 8
-34 22 10 22 103 0 742 -31 833 -40 55 -5 132 -12 170 -15 147 -12 386 -37
530 -56 83 -11 171 -22 198 -26 l47 -6 0 879 c0 934 11 2766 16 2773 2 2 85
-2 186 -8 268 -16 321 -19 563 -31 121 -6 286 -15 367 -20 87 -5 234 -5 360 0
117 5 344 14 503 20 160 6 335 12 390 15 55 2 185 7 288 11 103 4 201 9 218
13 l30 6 -59 85 c-60 88 -221 316 -403 572 -57 81 -138 195 -179 254 -107 152
-229 325 -299 424 -33 47 -102 144 -152 215 -111 158 -155 220 -315 445 -68
96 -128 182 -134 190 -5 8 -41 58 -78 110 -37 53 -93 131 -123 175 -61 87
-251 358 -275 390 -8 11 -41 58 -74 105 -32 47 -63 90 -67 95 -5 6 -51 71
-103 145 -52 74 -98 140 -102 145 -5 6 -34 47 -66 92 -57 82 -189 270 -417
592 -66 93 -149 211 -185 262 -36 50 -89 126 -118 168 -29 41 -59 85 -67 96
-24 32 -189 265 -335 473 -74 106 -193 275 -265 375 -71 100 -152 214 -178
252 -27 39 -69 99 -95 135 -68 96 -91 129 -153 216 -30 44 -111 158 -179 254
-114 162 -303 430 -395 560 -21 30 -53 75 -71 100 -18 25 -59 83 -91 130 -32
47 -60 87 -63 90 -3 3 -53 73 -111 155 -58 83 -121 173 -141 200 -116 164
-429 607 -566 803 -62 89 -117 161 -120 161 -4 -1 -74 -25 -157 -54z m-1810
-5889 c138 -3 312 -9 388 -13 l138 -6 -3 -796 -3 -796 -29 -3 c-21 -3 -26 0
-20 10 6 9 3 9 -10 -1 -18 -15 -53 -17 -598 -24 l-188 -2 0 821 0 821 38 -3
c20 -1 150 -5 287 -8z m1350 -41 c105 -3 234 -8 288 -11 l97 -7 0 -772 c-1
-594 -4 -774 -13 -778 -7 -2 -181 -5 -388 -6 l-377 -2 -5 43 c-6 59 -7 1530
-1 1540 3 5 52 7 107 4 56 -3 188 -8 292 -11z m385 -2705 c-1 -582 -4 -749
-13 -743 -9 5 -8 2 1 -9 13 -17 6 -52 -10 -42 -5 4 -5 11 1 18 8 9 7 13 -3 13
-8 0 -13 -8 -11 -19 3 -14 -3 -18 -28 -19 -18 0 -39 -2 -47 -3 -8 -2 -82 -7
-163 -10 -82 -4 -159 -9 -170 -11 -12 -2 -95 -6 -184 -10 l-162 -7 -1 786 c0
432 1 786 2 786 2 1 143 3 313 7 171 3 312 7 314 9 2 2 40 4 83 4 l78 0 0
-750z m-1214 -73 c1 -433 -2 -789 -5 -791 -9 -5 -175 -17 -521 -36 -102 -6
-215 -12 -252 -15 l-68 -5 0 815 0 815 173 2 c94 2 285 3 422 3 l250 0 1 -788z"/>
</g>
</svg>
